<svg xmlns="http://www.w3.org/2000/svg" viewBox="0 0 24 24" fill="none" stroke="currentColor" stroke-width="2" stroke-linecap="round" stroke-linejoin="round">
    <path d="M19 2H5a2 2 0 0 0-2 2v16a2 2 0 0 0 2 2h14a2 2 0 0 0 2-2V4a2 2 0 0 0-2-2z"/>
    <path d="M12 17c-1.5 0-2.4-1.1-3-2-1.5 2-3 2-3 2 .5-1.5.5-4 3-4 2.5 0 2.5 2.5 3 4z"/>
    <path d="M12 11c-1.5 0-2.4-1.1-3-2-1.5 2-3 2-3 2 .5-1.5.5-4 3-4 2.5 0 2.5 2.5 3 4z"/>
    <line x1="8" y1="2" x2="8" y2="22"/>
    <line x1="16" y1="2" x2="16" y2="22"/>
</svg>